<svg xmlns="http://www.w3.org/2000/svg" xmlns:v="https://svgstorm.com" viewBox="0 0 1536 1024">
<g fill="None" fill-opacity="0.0" stroke="#FEFEFE" stroke-opacity="1.00" stroke-width="0.3"><path d="M 0.00 1024.00 L 1536.00 1024.00 L 1536.00 0.00 L 0.00 0.00 L 0.00 1024.00 M 582.00 536.00 C 591.79 536.37 601.50 535.98 611.00 535.00 C 634.73 532.56 662.05 525.17 672.30 503.30 C 682.56 481.43 697.27 467.06 714.00 451.00 C 705.84 448.99 695.70 450.39 687.00 451.00 C 678.30 451.61 670.18 453.93 661.78 455.78 C 653.38 457.63 647.26 459.91 638.98 462.98 C 630.69 466.04 628.42 469.18 619.92 473.92 C 611.41 478.66 617.00 469.61 624.70 466.70 C 632.39 463.78 636.14 459.21 644.22 457.22 C 652.31 455.24 658.75 451.92 667.22 450.22 C 675.70 448.53 684.88 447.68 694.00 447.00 C 703.12 446.32 713.38 445.91 723.00 446.00 C 732.62 446.09 742.52 446.19 752.00 447.00 C 754.77 447.00 757.96 447.80 760.00 448.00 C 781.21 448.00 809.23 453.18 830.00 452.00 C 850.77 450.82 878.25 452.22 881.00 428.00 C 889.49 433.52 879.78 446.25 869.92 449.92 C 860.06 453.60 847.01 456.04 835.00 456.00 C 822.99 455.96 807.30 456.00 795.00 455.00 C 782.70 454.00 769.46 452.77 757.00 452.00 C 754.26 451.95 751.02 451.20 749.00 451.00 C 736.53 451.00 721.29 448.06 713.75 459.75 C 706.21 471.44 700.44 475.22 694.23 486.23 C 688.02 497.24 681.38 504.42 677.00 516.00 C 692.15 512.11 712.19 508.27 726.00 517.00 C 712.19 517.79 682.47 511.15 672.08 524.08 C 661.69 537.01 657.06 551.76 647.75 564.75 C 638.43 577.73 630.86 590.18 619.75 601.75 C 608.65 613.32 598.89 625.31 585.00 633.00 C 592.60 634.03 601.74 629.98 609.68 627.68 C 617.61 625.38 626.38 621.99 634.07 619.07 C 641.77 616.16 648.82 612.76 656.08 609.08 C 663.34 605.39 670.75 601.69 677.70 597.70 C 684.64 593.70 691.47 590.40 698.08 586.08 C 704.69 581.75 713.00 578.34 715.98 570.97 C 718.95 563.61 722.84 556.42 726.31 549.31 C 729.77 542.19 734.78 535.68 739.25 529.25 C 743.73 522.83 747.69 516.51 752.30 510.30 C 756.92 504.09 762.35 498.37 767.75 492.75 C 773.16 487.14 778.79 481.97 784.70 477.70 C 790.61 473.42 803.48 467.71 807.30 476.70 C 811.13 485.68 803.08 493.39 799.25 500.25 C 795.41 507.10 790.78 512.69 785.75 518.75 C 780.72 524.81 775.49 530.28 770.25 536.25 C 765.01 542.22 759.50 546.30 753.75 551.75 C 748.01 557.20 741.80 561.63 735.30 566.30 C 728.81 570.98 722.43 576.25 721.22 584.22 C 720.01 592.19 718.27 605.32 728.22 607.78 C 738.18 610.23 745.16 604.31 753.23 601.23 C 761.30 598.15 766.67 593.35 773.75 588.75 C 780.82 584.14 784.58 579.51 792.25 575.25 C 799.91 570.99 801.39 564.41 810.08 560.08 C 818.77 555.75 810.97 571.96 806.23 575.23 C 801.49 578.50 794.24 594.94 801.08 597.92 C 807.93 600.89 819.01 591.50 824.08 588.08 C 829.15 584.66 837.75 577.93 841.75 573.75 C 845.76 569.57 858.64 558.71 858.66 567.68 C 858.68 576.65 847.19 582.11 851.00 592.00 C 854.81 601.89 867.02 597.20 874.07 594.07 C 881.13 590.95 888.52 587.38 895.08 583.08 C 901.64 578.78 908.75 574.73 915.08 570.08 C 921.42 565.43 932.00 562.75 929.33 552.33 C 926.66 541.91 947.57 539.26 944.99 549.01 C 942.42 558.76 930.54 559.99 937.00 572.00 C 937.36 574.23 937.10 585.81 939.00 587.00 C 948.21 587.66 954.50 579.81 963.70 577.69 C 972.89 575.58 974.98 568.38 985.23 565.23 C 995.48 562.08 991.02 551.08 998.75 543.75 C 1006.48 536.43 1014.34 548.73 1004.25 555.25 C 994.16 561.77 1006.69 576.96 1002.00 586.00 C 1011.02 583.25 1020.02 580.08 1028.23 575.23 C 1036.44 570.37 1045.00 567.92 1052.25 561.25 C 1059.50 554.58 1067.61 548.96 1078.00 549.00 C 1088.39 549.04 1099.04 544.98 1109.07 543.07 C 1119.11 541.16 1130.01 537.51 1140.07 536.07 C 1150.14 534.63 1163.13 529.87 1171.00 533.00 C 1142.39 539.52 1113.56 545.28 1085.00 552.00 C 1097.16 570.59 1072.39 597.62 1053.00 598.00 C 1033.61 598.38 1044.14 577.73 1046.00 569.00 C 1032.27 578.06 1017.32 586.44 1001.00 589.00 C 997.83 594.93 994.98 601.05 988.30 604.30 C 981.62 607.56 974.04 611.70 965.33 608.67 C 956.62 605.64 961.23 596.95 968.70 594.70 C 976.16 592.44 983.44 591.87 990.68 588.68 C 997.91 585.48 992.09 569.83 994.00 564.00 C 983.27 569.99 971.97 578.18 960.77 582.77 C 949.58 587.36 933.85 591.51 928.75 602.75 C 923.65 613.99 893.18 616.59 895.33 603.33 C 897.49 590.07 929.92 599.59 929.00 584.00 C 929.40 579.57 929.37 574.43 929.00 570.00 C 928.67 568.40 929.25 566.61 929.00 565.00 C 918.29 572.35 910.58 577.23 899.30 584.30 C 888.02 591.37 880.07 595.90 866.32 600.32 C 852.57 604.75 834.68 593.97 845.00 577.00 C 837.27 581.56 831.43 588.08 823.75 592.75 C 816.08 597.42 806.53 605.10 796.33 601.67 C 786.13 598.24 792.97 581.94 797.00 576.00 C 786.26 583.69 779.17 590.57 767.75 597.75 C 756.34 604.94 745.69 611.24 731.00 612.00 C 716.31 612.76 707.13 594.73 713.00 581.00 C 694.54 590.96 679.30 603.41 659.77 611.77 C 640.24 620.13 619.94 631.32 598.32 634.32 C 576.70 637.32 558.28 649.55 535.98 653.98 C 513.67 658.41 485.51 656.46 467.30 642.70 C 449.09 628.93 438.56 610.27 438.00 588.00 C 437.67 584.54 437.67 580.39 438.00 577.00 C 438.00 542.06 459.67 511.94 461.00 477.00 C 461.23 470.95 459.83 463.93 461.00 458.00 C 461.19 457.04 460.85 455.97 461.00 455.00 C 475.45 507.29 426.41 560.03 447.77 612.23 C 469.13 664.43 537.62 658.74 575.70 631.70 C 613.78 604.65 638.07 565.48 659.00 526.00 C 648.05 530.22 637.71 533.05 626.33 536.33 C 614.94 539.60 599.39 541.44 587.33 540.67 C 575.27 539.90 563.10 537.05 553.30 530.70 C 543.50 524.35 537.10 518.01 533.08 506.92 C 529.05 495.84 530.68 479.13 533.98 467.98 C 537.28 456.82 541.23 446.49 545.78 435.78 C 550.32 425.06 552.24 409.64 547.08 398.92 C 541.91 388.21 532.69 384.47 522.77 379.23 C 512.85 373.98 504.29 370.87 495.75 362.25 C 487.22 353.63 486.48 342.34 483.01 330.99 C 479.53 319.64 482.62 302.47 495.69 301.69 C 508.77 300.92 519.05 288.44 508.00 282.00 C 508.89 274.57 503.69 268.29 506.31 261.31 C 508.92 254.32 492.30 256.98 487.92 252.08 C 483.55 247.17 479.71 241.38 474.75 236.25 C 469.79 231.12 462.65 227.82 455.33 226.67 C 448.01 225.52 436.76 225.65 429.93 228.93 C 423.09 232.20 417.87 234.85 412.75 240.75 C 407.63 246.66 404.12 253.22 403.01 261.01 C 401.90 268.80 404.28 278.53 408.31 284.70 C 412.33 290.86 416.42 295.34 421.75 300.25 C 427.08 305.16 431.94 308.62 436.75 314.25 C 441.56 319.87 445.18 325.71 446.98 333.02 C 448.77 340.33 448.76 351.88 445.69 358.69 C 442.63 365.51 438.24 370.07 432.30 374.30 C 426.37 378.53 420.45 381.90 415.25 387.25 C 410.05 392.60 406.33 397.67 403.70 404.70 C 401.06 411.72 398.92 419.55 397.07 427.07 C 395.23 434.60 394.25 443.56 392.07 451.07 C 389.89 458.58 388.64 466.72 386.07 474.07 C 383.51 481.43 381.78 488.79 379.02 496.02 C 376.27 503.26 372.51 509.73 370.00 517.00 C 367.61 522.54 364.75 528.56 361.00 533.00 C 361.88 527.63 365.17 522.38 368.00 518.00 C 376.66 498.63 381.15 476.25 386.93 455.93 C 392.71 435.60 393.45 410.97 404.92 392.92 C 416.40 374.88 439.42 372.10 444.00 350.00 C 444.29 346.79 444.17 343.22 444.00 340.00 C 443.53 331.42 439.35 324.31 434.23 317.77 C 429.11 311.23 424.53 307.30 418.25 301.75 C 411.97 296.21 408.09 291.44 403.70 284.30 C 399.30 277.17 397.69 265.26 399.78 256.78 C 401.86 248.30 405.08 242.49 411.25 236.25 C 417.42 230.01 423.03 227.12 431.22 224.22 C 439.42 221.33 451.89 221.48 460.07 223.93 C 468.26 226.38 473.88 230.30 479.75 236.25 C 485.63 242.19 486.27 250.99 496.03 251.98 C 505.78 252.96 514.40 257.62 508.00 269.00 C 513.61 271.05 511.91 277.26 512.00 282.00 C 524.15 294.38 506.65 302.09 493.32 306.32 C 480.00 310.55 486.69 333.79 489.99 346.01 C 493.29 358.23 505.78 366.43 517.08 371.92 C 528.37 377.41 540.81 382.49 549.25 393.75 C 557.69 405.01 554.11 424.62 549.22 437.22 C 544.34 449.83 538.86 463.30 536.00 477.00 C 533.15 490.71 534.36 508.90 544.75 519.25 C 555.15 529.59 567.59 535.10 582.00 536.00 M 949.00 665.00 C 949.61 671.32 948.34 681.39 950.00 688.00 C 950.90 690.20 951.94 691.77 954.00 693.00 C 948.33 693.80 944.21 692.94 942.00 689.00 C 932.48 700.32 916.86 690.10 917.00 677.00 C 917.15 663.90 930.86 652.69 943.00 662.00 C 944.12 655.84 946.50 645.64 940.00 642.00 C 943.14 641.88 945.93 640.52 949.00 640.00 C 949.00 648.33 949.00 656.67 949.00 665.00"/></g>
<g fill="#FEFEFE" fill-opacity="1.00" stroke="None">
<path d="M 0.00 1024.00 L 1536.00 1024.00 L 1536.00 0.00 L 0.00 0.00 L 0.00 1024.00 M 582.00 536.00 C 591.79 536.37 601.50 535.98 611.00 535.00 C 634.73 532.56 662.05 525.17 672.30 503.30 C 682.56 481.43 697.27 467.06 714.00 451.00 C 705.84 448.99 695.70 450.39 687.00 451.00 C 678.30 451.61 670.18 453.93 661.78 455.78 C 653.38 457.63 647.26 459.91 638.98 462.98 C 630.69 466.04 628.42 469.18 619.92 473.92 C 611.41 478.66 617.00 469.61 624.70 466.70 C 632.39 463.78 636.14 459.21 644.22 457.22 C 652.31 455.24 658.75 451.92 667.22 450.22 C 675.70 448.53 684.88 447.68 694.00 447.00 C 703.12 446.32 713.38 445.91 723.00 446.00 C 732.62 446.09 742.52 446.19 752.00 447.00 C 754.77 447.00 757.96 447.80 760.00 448.00 C 781.21 448.00 809.23 453.18 830.00 452.00 C 850.77 450.82 878.25 452.22 881.00 428.00 C 889.49 433.52 879.78 446.25 869.92 449.92 C 860.06 453.60 847.01 456.04 835.00 456.00 C 822.99 455.96 807.30 456.00 795.00 455.00 C 782.70 454.00 769.46 452.77 757.00 452.00 C 754.26 451.95 751.02 451.20 749.00 451.00 C 736.53 451.00 721.29 448.06 713.75 459.75 C 706.21 471.44 700.44 475.22 694.23 486.23 C 688.02 497.24 681.38 504.42 677.00 516.00 C 692.15 512.11 712.19 508.27 726.00 517.00 C 712.19 517.79 682.47 511.15 672.08 524.08 C 661.69 537.01 657.06 551.76 647.75 564.75 C 638.43 577.73 630.86 590.18 619.75 601.75 C 608.65 613.32 598.89 625.31 585.00 633.00 C 592.60 634.03 601.74 629.98 609.68 627.68 C 617.61 625.38 626.38 621.99 634.07 619.07 C 641.77 616.16 648.82 612.76 656.08 609.08 C 663.34 605.39 670.75 601.69 677.70 597.70 C 684.64 593.70 691.47 590.40 698.08 586.08 C 704.69 581.75 713.00 578.34 715.98 570.97 C 718.95 563.61 722.84 556.42 726.31 549.31 C 729.77 542.19 734.78 535.68 739.25 529.25 C 743.73 522.83 747.69 516.51 752.30 510.30 C 756.92 504.09 762.35 498.37 767.75 492.75 C 773.16 487.14 778.79 481.97 784.70 477.70 C 790.61 473.42 803.48 467.71 807.30 476.70 C 811.13 485.68 803.08 493.39 799.25 500.25 C 795.41 507.10 790.78 512.69 785.75 518.75 C 780.72 524.81 775.49 530.28 770.25 536.25 C 765.01 542.22 759.50 546.30 753.75 551.75 C 748.01 557.20 741.80 561.63 735.30 566.30 C 728.81 570.98 722.43 576.25 721.22 584.22 C 720.01 592.19 718.27 605.32 728.22 607.78 C 738.18 610.23 745.16 604.31 753.23 601.23 C 761.30 598.15 766.67 593.35 773.75 588.75 C 780.82 584.14 784.58 579.51 792.25 575.25 C 799.91 570.99 801.39 564.41 810.08 560.08 C 818.77 555.75 810.97 571.96 806.23 575.23 C 801.49 578.50 794.24 594.94 801.08 597.92 C 807.93 600.89 819.01 591.50 824.08 588.08 C 829.15 584.66 837.75 577.93 841.75 573.75 C 845.76 569.57 858.64 558.71 858.66 567.68 C 858.68 576.65 847.19 582.11 851.00 592.00 C 854.81 601.89 867.02 597.20 874.07 594.07 C 881.13 590.95 888.52 587.38 895.08 583.08 C 901.64 578.78 908.75 574.73 915.08 570.08 C 921.42 565.43 932.00 562.75 929.33 552.33 C 926.66 541.91 947.57 539.26 944.99 549.01 C 942.42 558.76 930.54 559.99 937.00 572.00 C 937.36 574.23 937.10 585.81 939.00 587.00 C 948.21 587.66 954.50 579.81 963.70 577.69 C 972.89 575.58 974.98 568.38 985.23 565.23 C 995.48 562.08 991.02 551.08 998.75 543.75 C 1006.48 536.43 1014.34 548.73 1004.25 555.25 C 994.16 561.77 1006.69 576.96 1002.00 586.00 C 1011.02 583.25 1020.02 580.08 1028.23 575.23 C 1036.44 570.37 1045.00 567.92 1052.25 561.25 C 1059.50 554.58 1067.61 548.96 1078.00 549.00 C 1088.39 549.04 1099.04 544.98 1109.07 543.07 C 1119.11 541.16 1130.01 537.51 1140.07 536.07 C 1150.14 534.63 1163.13 529.87 1171.00 533.00 C 1142.39 539.52 1113.56 545.28 1085.00 552.00 C 1097.16 570.59 1072.39 597.62 1053.00 598.00 C 1033.61 598.38 1044.14 577.73 1046.00 569.00 C 1032.27 578.06 1017.32 586.44 1001.00 589.00 C 997.83 594.93 994.98 601.05 988.30 604.30 C 981.62 607.56 974.04 611.70 965.33 608.67 C 956.62 605.64 961.23 596.95 968.70 594.70 C 976.16 592.44 983.44 591.87 990.68 588.68 C 997.91 585.48 992.09 569.83 994.00 564.00 C 983.27 569.99 971.97 578.18 960.77 582.77 C 949.58 587.36 933.85 591.51 928.75 602.75 C 923.65 613.99 893.18 616.59 895.33 603.33 C 897.49 590.07 929.92 599.59 929.00 584.00 C 929.40 579.57 929.37 574.43 929.00 570.00 C 928.67 568.40 929.25 566.61 929.00 565.00 C 918.29 572.35 910.58 577.23 899.30 584.30 C 888.02 591.37 880.07 595.90 866.32 600.32 C 852.57 604.75 834.68 593.97 845.00 577.00 C 837.27 581.56 831.43 588.08 823.75 592.75 C 816.08 597.42 806.53 605.10 796.33 601.67 C 786.13 598.24 792.97 581.94 797.00 576.00 C 786.26 583.69 779.17 590.57 767.75 597.75 C 756.34 604.94 745.69 611.24 731.00 612.00 C 716.31 612.76 707.13 594.73 713.00 581.00 C 694.54 590.96 679.30 603.41 659.77 611.77 C 640.24 620.13 619.94 631.32 598.32 634.32 C 576.70 637.32 558.28 649.55 535.98 653.98 C 513.67 658.41 485.51 656.46 467.30 642.70 C 449.09 628.93 438.56 610.27 438.00 588.00 C 437.67 584.54 437.67 580.39 438.00 577.00 C 438.00 542.06 459.67 511.94 461.00 477.00 C 461.23 470.95 459.83 463.93 461.00 458.00 C 461.19 457.04 460.85 455.97 461.00 455.00 C 475.45 507.29 426.41 560.03 447.77 612.23 C 469.13 664.43 537.62 658.74 575.70 631.70 C 613.78 604.65 638.07 565.48 659.00 526.00 C 648.05 530.22 637.71 533.05 626.33 536.33 C 614.94 539.60 599.39 541.44 587.33 540.67 C 575.27 539.90 563.10 537.05 553.30 530.70 C 543.50 524.35 537.10 518.01 533.08 506.92 C 529.05 495.84 530.68 479.13 533.98 467.98 C 537.28 456.82 541.23 446.49 545.78 435.78 C 550.32 425.06 552.24 409.64 547.08 398.92 C 541.91 388.21 532.69 384.47 522.77 379.23 C 512.85 373.98 504.29 370.87 495.75 362.25 C 487.22 353.63 486.48 342.34 483.01 330.99 C 479.53 319.64 482.62 302.47 495.69 301.69 C 508.77 300.92 519.05 288.44 508.00 282.00 C 508.89 274.57 503.69 268.29 506.31 261.31 C 508.92 254.32 492.30 256.98 487.92 252.08 C 483.55 247.17 479.71 241.38 474.75 236.25 C 469.79 231.12 462.65 227.82 455.33 226.67 C 448.01 225.52 436.76 225.65 429.93 228.93 C 423.09 232.20 417.87 234.85 412.75 240.75 C 407.63 246.66 404.12 253.22 403.01 261.01 C 401.90 268.80 404.28 278.53 408.31 284.70 C 412.33 290.86 416.42 295.34 421.75 300.25 C 427.08 305.16 431.94 308.62 436.75 314.25 C 441.56 319.87 445.18 325.71 446.98 333.02 C 448.77 340.33 448.76 351.88 445.69 358.69 C 442.63 365.51 438.24 370.07 432.30 374.30 C 426.37 378.53 420.45 381.90 415.25 387.25 C 410.05 392.60 406.33 397.67 403.70 404.70 C 401.06 411.72 398.92 419.55 397.07 427.07 C 395.23 434.60 394.25 443.56 392.07 451.07 C 389.89 458.58 388.64 466.72 386.07 474.07 C 383.51 481.43 381.78 488.79 379.02 496.02 C 376.27 503.26 372.51 509.73 370.00 517.00 C 367.61 522.54 364.75 528.56 361.00 533.00 C 361.88 527.63 365.17 522.38 368.00 518.00 C 376.66 498.63 381.15 476.25 386.93 455.93 C 392.71 435.60 393.45 410.97 404.92 392.92 C 416.40 374.88 439.42 372.10 444.00 350.00 C 444.29 346.79 444.17 343.22 444.00 340.00 C 443.53 331.42 439.35 324.31 434.23 317.77 C 429.11 311.23 424.53 307.30 418.25 301.75 C 411.97 296.21 408.09 291.44 403.70 284.30 C 399.30 277.17 397.69 265.26 399.78 256.78 C 401.86 248.30 405.08 242.49 411.25 236.25 C 417.42 230.01 423.03 227.12 431.22 224.22 C 439.42 221.33 451.89 221.48 460.07 223.93 C 468.26 226.38 473.88 230.30 479.75 236.25 C 485.63 242.19 486.27 250.99 496.03 251.98 C 505.78 252.96 514.40 257.62 508.00 269.00 C 513.61 271.05 511.91 277.26 512.00 282.00 C 524.15 294.38 506.65 302.09 493.32 306.32 C 480.00 310.55 486.69 333.79 489.99 346.01 C 493.29 358.23 505.78 366.43 517.08 371.92 C 528.37 377.41 540.81 382.49 549.25 393.75 C 557.69 405.01 554.11 424.62 549.22 437.22 C 544.34 449.83 538.86 463.30 536.00 477.00 C 533.15 490.71 534.36 508.90 544.75 519.25 C 555.15 529.59 567.59 535.10 582.00 536.00 M 665.00 338.00 C 661.87 337.61 647.87 336.35 646.00 339.00 C 642.86 345.35 648.59 349.74 646.00 357.00 C 643.41 364.26 649.73 367.11 656.00 366.00 C 662.27 364.89 665.63 365.52 668.00 359.00 C 669.60 362.93 669.70 370.14 668.00 374.00 C 666.79 370.20 663.15 367.35 659.00 368.00 C 654.70 367.61 650.31 368.29 646.00 368.00 C 643.72 371.26 645.83 380.29 646.00 385.00 C 646.17 389.71 641.85 398.13 651.00 398.00 C 660.16 397.87 673.84 399.66 678.00 389.00 C 680.01 391.92 676.76 396.35 677.00 400.00 C 662.67 400.00 648.33 400.00 634.00 400.00 C 637.33 398.32 638.81 394.86 638.00 391.00 C 638.60 375.25 639.75 357.65 638.00 342.00 C 637.29 338.96 637.33 336.37 634.00 335.00 C 647.33 335.00 660.67 335.00 674.00 335.00 C 673.41 337.84 675.22 341.98 673.00 344.00 C 672.49 340.48 668.47 337.82 665.00 338.00 M 972.00 395.00 C 976.03 393.50 971.99 398.11 970.00 399.00 C 968.08 399.86 966.23 400.33 964.00 400.00 C 960.81 391.89 972.44 383.24 966.00 375.00 C 965.51 375.10 962.30 376.08 962.00 376.00 C 953.94 380.06 946.23 400.72 959.00 399.00 C 940.34 407.02 947.78 376.22 961.00 375.00 C 962.32 374.55 964.04 373.37 966.00 374.00 C 967.24 374.62 968.90 374.87 970.00 376.00 C 970.40 370.19 976.80 362.71 972.00 358.00 C 974.52 358.07 976.73 356.92 979.00 356.00 C 976.69 370.35 970.79 383.73 968.00 398.00 C 969.77 398.21 971.37 396.46 972.00 395.00 M 1005.00 399.00 C 1006.00 396.95 1008.19 395.18 1010.00 394.00 C 1009.84 396.64 1006.98 398.62 1005.00 400.00 C 999.21 404.94 999.40 392.26 1001.78 388.78 C 1004.15 385.30 1004.44 377.20 1005.99 372.99 C 1007.54 368.79 1011.28 361.36 1007.00 358.00 C 1009.91 358.24 1012.18 356.24 1015.00 356.00 C 1013.05 370.45 1003.77 384.92 1005.00 399.00 M 709.00 361.00 C 710.62 363.09 709.84 366.24 710.00 369.00 C 708.60 369.51 707.85 368.19 708.00 367.00 C 704.40 363.66 697.74 355.06 692.25 362.25 C 686.77 369.45 696.82 372.82 701.23 375.77 C 705.64 378.72 713.46 381.96 712.99 389.01 C 712.52 396.05 707.08 400.67 700.00 401.00 C 692.91 401.32 682.97 398.47 686.00 389.00 C 687.52 398.64 707.04 405.20 706.99 391.99 C 706.94 378.79 689.57 384.66 686.23 372.77 C 682.90 360.88 700.18 352.94 709.00 361.00 M 736.00 359.00 C 739.56 359.59 742.24 359.10 744.00 362.00 C 745.08 363.79 746.39 369.83 743.00 368.00 C 739.72 366.23 740.69 360.66 735.00 360.00 C 734.58 360.21 731.39 360.24 731.00 360.00 C 719.61 363.72 730.15 374.45 737.69 376.31 C 745.24 378.16 750.66 390.27 745.23 396.23 C 739.79 402.19 725.12 404.16 721.00 396.00 C 720.13 394.29 718.43 386.86 722.00 389.00 C 726.27 391.56 727.17 402.25 735.22 399.22 C 743.28 396.18 743.06 389.92 737.25 384.75 C 731.43 379.58 726.22 381.29 722.08 373.92 C 717.95 366.55 723.83 360.38 731.00 359.00 C 733.06 358.60 734.02 358.67 736.00 359.00 M 790.00 375.00 C 782.41 378.64 770.03 372.27 762.00 375.00 C 762.00 377.00 762.00 379.00 762.00 381.00 C 764.05 395.34 777.98 403.11 790.00 392.00 C 784.40 404.51 766.19 403.60 758.70 393.30 C 751.20 383.01 753.15 367.21 764.25 360.25 C 775.34 353.28 795.67 362.43 790.00 375.00 M 809.00 358.00 C 808.77 362.21 808.34 366.28 813.00 363.00 C 807.67 367.33 808.65 374.64 809.00 381.00 C 809.35 387.36 806.60 396.53 813.00 400.00 C 808.00 400.00 803.00 400.00 798.00 400.00 C 804.28 396.30 801.84 387.65 802.00 381.00 C 802.16 374.35 803.73 365.60 798.00 361.00 C 801.92 360.90 805.32 358.99 809.00 358.00 M 837.00 369.00 C 838.98 376.98 835.53 387.87 838.00 396.00 C 839.07 398.25 839.72 398.96 842.00 400.00 C 836.67 400.00 831.33 400.00 826.00 400.00 C 831.86 397.44 829.61 390.26 830.00 385.00 C 830.00 380.13 830.60 374.83 830.00 370.00 C 827.86 361.35 821.12 361.54 814.00 362.00 C 820.93 354.71 836.25 357.91 837.00 369.00 M 926.00 397.00 C 924.38 402.37 914.09 402.38 913.00 396.00 C 905.89 401.70 887.48 404.28 887.01 390.99 C 886.54 377.70 904.93 379.76 913.00 376.00 C 916.17 368.38 906.40 351.98 897.75 362.75 C 889.11 373.53 889.06 361.50 900.01 359.01 C 910.96 356.52 918.23 361.31 919.99 371.01 C 921.75 380.70 914.76 397.83 926.00 397.00 M 881.00 359.00 C 874.23 372.49 863.03 384.08 857.00 398.00 C 865.73 397.58 876.85 400.43 882.00 392.00 C 882.59 394.91 880.41 397.06 881.00 400.00 C 869.67 400.00 858.33 400.00 847.00 400.00 C 853.76 386.32 864.36 374.16 872.00 361.00 C 863.99 361.50 852.25 358.31 849.00 368.00 C 846.91 365.80 850.16 362.10 849.00 359.00 C 859.67 359.00 870.33 359.00 881.00 359.00 M 995.00 375.00 C 999.97 373.86 997.21 382.88 994.30 384.30 C 991.39 385.72 983.65 387.09 982.00 389.00 C 981.47 389.95 981.67 394.93 982.00 396.00 C 984.22 400.29 987.95 399.35 992.00 397.00 C 992.69 395.81 993.62 394.41 995.00 394.00 C 995.06 396.22 992.71 397.99 991.00 399.00 C 984.08 406.06 974.92 395.90 977.00 390.00 C 979.08 384.10 982.64 375.92 989.00 375.00 C 990.68 374.36 993.38 372.86 995.00 375.00 M 842.00 643.00 C 841.31 646.34 845.72 652.81 841.00 654.00 C 841.86 645.61 826.82 636.95 821.75 647.75 C 816.68 658.55 829.09 663.12 837.23 666.77 C 845.36 670.42 849.08 681.27 841.75 688.75 C 834.42 696.23 823.66 692.67 815.00 692.00 C 815.63 688.17 813.72 683.01 816.00 680.00 C 817.27 688.66 827.72 696.60 836.23 690.23 C 844.74 683.85 837.94 671.70 828.92 670.08 C 819.91 668.46 812.12 658.41 816.93 648.93 C 821.73 639.44 834.49 642.96 842.00 643.00 M 861.00 649.00 C 861.00 652.33 861.00 655.67 861.00 659.00 C 864.17 659.61 868.65 657.75 871.00 660.00 C 868.57 662.13 864.18 660.47 861.00 661.00 C 862.38 670.46 855.32 698.70 872.00 689.00 C 867.57 697.50 855.87 694.42 855.01 685.99 C 854.15 677.57 859.17 662.07 850.00 661.00 C 852.25 658.42 857.10 658.15 855.00 652.00 C 857.28 651.45 858.59 649.01 861.00 649.00 M 885.00 685.00 C 886.96 691.47 892.58 692.88 898.25 688.25 C 903.92 683.61 901.30 675.48 902.00 669.00 C 902.70 662.52 899.13 664.41 898.00 661.00 C 897.14 658.41 899.94 658.54 903.00 659.00 C 904.33 659.05 905.67 658.96 907.00 659.00 C 908.67 670.10 902.72 686.14 912.00 693.00 C 907.65 692.44 899.00 695.45 901.00 688.00 C 895.99 693.98 884.28 697.36 880.08 688.92 C 875.89 680.48 883.26 667.66 876.00 661.00 C 875.88 660.79 872.84 660.76 874.00 659.00 C 876.00 659.00 878.00 659.00 880.00 659.00 C 880.94 659.05 882.06 659.11 883.00 659.00 C 886.91 658.54 884.25 680.56 885.00 685.00 M 969.00 658.00 C 971.08 669.23 964.48 684.89 973.00 693.00 C 968.33 693.00 963.67 693.00 959.00 693.00 C 965.47 686.15 965.44 667.79 959.00 661.00 C 962.68 661.27 965.84 659.55 969.00 658.00 M 997.00 658.00 C 1019.03 660.10 1015.39 697.15 993.00 694.00 C 970.61 690.85 975.59 655.96 997.00 658.00 Z"/>
</g>
<g fill="#BB8830" fill-opacity="1.00" stroke="None">
<path d="M 444.00 340.00 C 444.57 343.48 444.72 346.54 444.00 350.00 C 439.42 372.10 416.40 374.88 404.92 392.92 C 393.45 410.97 392.71 435.60 386.93 455.93 C 381.15 476.25 376.66 498.63 368.00 518.00 C 368.37 517.69 369.77 517.30 370.00 517.00 C 372.51 509.73 376.27 503.26 379.02 496.02 C 381.78 488.79 383.51 481.43 386.07 474.07 C 388.64 466.72 389.89 458.58 392.07 451.07 C 394.25 443.56 395.23 434.60 397.07 427.07 C 398.92 419.55 401.06 411.72 403.70 404.70 C 406.33 397.67 410.05 392.60 415.25 387.25 C 420.45 381.90 426.37 378.53 432.30 374.30 C 438.24 370.07 442.63 365.51 445.69 358.69 C 448.76 351.88 448.77 340.33 446.98 333.02 C 445.18 325.71 441.56 319.87 436.75 314.25 C 431.94 308.62 427.08 305.16 421.75 300.25 C 416.42 295.34 412.33 290.86 408.31 284.70 C 404.28 278.53 401.90 268.80 403.01 261.01 C 404.12 253.22 407.63 246.66 412.75 240.75 C 417.87 234.85 423.09 232.20 429.93 228.93 C 436.76 225.65 448.01 225.52 455.33 226.67 C 462.65 227.82 469.79 231.12 474.75 236.25 C 479.71 241.38 483.55 247.17 487.92 252.08 C 492.30 256.98 508.92 254.32 506.31 261.31 C 503.69 268.29 508.89 274.57 508.00 282.00 C 519.05 288.44 508.77 300.92 495.69 301.69 C 482.62 302.47 479.53 319.64 483.01 330.99 C 486.48 342.34 487.22 353.63 495.75 362.25 C 504.29 370.87 512.85 373.98 522.77 379.23 C 532.69 384.47 541.91 388.21 547.08 398.92 C 552.24 409.64 550.32 425.06 545.78 435.78 C 541.23 446.49 537.28 456.82 533.98 467.98 C 530.68 479.13 529.05 495.84 533.08 506.92 C 537.10 518.01 543.50 524.35 553.30 530.70 C 563.10 537.05 575.27 539.90 587.33 540.67 C 599.39 541.44 614.94 539.60 626.33 536.33 C 637.71 533.05 648.05 530.22 659.00 526.00 C 638.07 565.48 613.78 604.65 575.70 631.70 C 537.62 658.74 469.13 664.43 447.77 612.23 C 426.41 560.03 475.45 507.29 461.00 455.00 C 460.85 455.97 461.19 457.04 461.00 458.00 C 460.63 463.43 461.81 471.35 461.00 477.00 C 459.67 511.94 438.00 542.06 438.00 577.00 C 438.00 580.67 438.00 584.33 438.00 588.00 C 438.56 610.27 449.09 628.93 467.30 642.70 C 485.51 656.46 513.67 658.41 535.98 653.98 C 558.28 649.55 576.70 637.32 598.32 634.32 C 619.94 631.32 640.24 620.13 659.77 611.77 C 679.30 603.41 694.54 590.96 713.00 581.00 C 707.13 594.73 716.31 612.76 731.00 612.00 C 745.69 611.24 756.34 604.94 767.75 597.75 C 779.17 590.57 786.26 583.69 797.00 576.00 C 792.97 581.94 786.13 598.24 796.33 601.67 C 806.53 605.10 816.08 597.42 823.75 592.75 C 831.43 588.08 837.27 581.56 845.00 577.00 C 834.68 593.97 852.57 604.75 866.32 600.32 C 880.07 595.90 888.02 591.37 899.30 584.30 C 910.58 577.23 918.29 572.35 929.00 565.00 C 929.25 566.61 928.67 568.40 929.00 570.00 C 929.95 574.59 929.94 579.47 929.00 584.00 C 929.92 599.59 897.49 590.07 895.33 603.33 C 893.18 616.59 923.65 613.99 928.75 602.75 C 933.85 591.51 949.58 587.36 960.77 582.77 C 971.97 578.18 983.27 569.99 994.00 564.00 C 992.09 569.83 997.91 585.48 990.68 588.68 C 983.44 591.87 976.16 592.44 968.70 594.70 C 961.23 596.95 956.62 605.64 965.33 608.67 C 974.04 611.70 981.62 607.56 988.30 604.30 C 994.98 601.05 997.83 594.93 1001.00 589.00 C 1017.32 586.44 1032.27 578.06 1046.00 569.00 C 1044.14 577.73 1033.61 598.38 1053.00 598.00 C 1072.39 597.62 1097.16 570.59 1085.00 552.00 C 1113.56 545.28 1142.39 539.52 1171.00 533.00 C 1163.13 529.87 1150.14 534.63 1140.07 536.07 C 1130.01 537.51 1119.11 541.16 1109.07 543.07 C 1099.04 544.98 1088.39 549.04 1078.00 549.00 C 1067.61 548.96 1059.50 554.58 1052.25 561.25 C 1045.00 567.92 1036.44 570.37 1028.23 575.23 C 1020.02 580.08 1011.02 583.25 1002.00 586.00 C 1006.69 576.96 994.16 561.77 1004.25 555.25 C 1014.34 548.73 1006.48 536.43 998.75 543.75 C 991.02 551.08 995.48 562.08 985.23 565.23 C 974.98 568.38 972.89 575.58 963.70 577.69 C 954.50 579.81 948.21 587.66 939.00 587.00 C 935.37 586.74 937.26 576.82 937.00 572.00 C 930.54 559.99 942.42 558.76 944.99 549.01 C 947.57 539.26 926.66 541.91 929.33 552.33 C 932.00 562.75 921.42 565.43 915.08 570.08 C 908.75 574.73 901.64 578.78 895.08 583.08 C 888.52 587.38 881.13 590.95 874.07 594.07 C 867.02 597.20 854.81 601.89 851.00 592.00 C 847.19 582.11 858.68 576.65 858.66 567.68 C 858.64 558.71 845.76 569.57 841.75 573.75 C 837.75 577.93 829.15 584.66 824.08 588.08 C 819.01 591.50 807.93 600.89 801.08 597.92 C 794.24 594.94 801.49 578.50 806.23 575.23 C 810.97 571.96 818.77 555.75 810.08 560.08 C 801.39 564.41 799.91 570.99 792.25 575.25 C 784.58 579.51 780.82 584.14 773.75 588.75 C 766.67 593.35 761.30 598.15 753.23 601.23 C 745.16 604.31 738.18 610.23 728.22 607.78 C 718.27 605.32 720.01 592.19 721.22 584.22 C 722.43 576.25 728.81 570.98 735.30 566.30 C 741.80 561.63 748.01 557.20 753.75 551.75 C 759.50 546.30 765.01 542.22 770.25 536.25 C 775.49 530.28 780.72 524.81 785.75 518.75 C 790.78 512.69 795.41 507.10 799.25 500.25 C 803.08 493.39 811.13 485.68 807.30 476.70 C 803.48 467.71 790.61 473.42 784.70 477.70 C 778.79 481.97 773.16 487.14 767.75 492.75 C 762.35 498.37 756.92 504.09 752.30 510.30 C 747.69 516.51 743.73 522.83 739.25 529.25 C 734.78 535.68 729.77 542.19 726.31 549.31 C 722.84 556.42 718.95 563.61 715.98 570.97 C 713.00 578.34 704.69 581.75 698.08 586.08 C 691.47 590.40 684.64 593.70 677.70 597.70 C 670.75 601.69 663.34 605.39 656.08 609.08 C 648.82 612.76 641.77 616.16 634.07 619.07 C 626.38 621.99 617.61 625.38 609.68 627.68 C 601.74 629.98 592.60 634.03 585.00 633.00 C 598.89 625.31 608.65 613.32 619.75 601.75 C 630.86 590.18 638.43 577.73 647.75 564.75 C 657.06 551.76 661.69 537.01 672.08 524.08 C 682.47 511.15 712.19 517.79 726.00 517.00 C 712.19 508.27 692.15 512.11 677.00 516.00 C 681.38 504.42 688.02 497.24 694.23 486.23 C 700.44 475.22 706.21 471.44 713.75 459.75 C 721.29 448.06 736.53 451.00 749.00 451.00 C 751.83 451.00 754.89 451.75 757.00 452.00 C 769.46 452.77 782.70 454.00 795.00 455.00 C 807.30 456.00 822.99 455.96 835.00 456.00 C 847.01 456.04 860.06 453.60 869.92 449.92 C 879.78 446.25 889.49 433.52 881.00 428.00 C 878.25 452.22 850.77 450.82 830.00 452.00 C 809.23 453.18 781.21 448.00 760.00 448.00 C 757.23 448.00 754.04 447.20 752.00 447.00 C 742.52 446.19 732.62 446.09 723.00 446.00 C 713.38 445.91 703.12 446.32 694.00 447.00 C 684.88 447.68 675.70 448.53 667.22 450.22 C 658.75 451.92 652.31 455.24 644.22 457.22 C 636.14 459.21 632.39 463.78 624.70 466.70 C 617.00 469.61 611.41 478.66 619.92 473.92 C 628.42 469.18 630.69 466.04 638.98 462.98 C 647.26 459.91 653.38 457.63 661.78 455.78 C 670.18 453.93 678.30 451.61 687.00 451.00 C 695.70 450.39 705.84 448.99 714.00 451.00 C 697.27 467.06 682.56 481.43 672.30 503.30 C 662.05 525.17 634.73 532.56 611.00 535.00 C 601.82 537.03 591.38 537.34 582.00 536.00 C 567.59 535.10 555.15 529.59 544.75 519.25 C 534.36 508.90 533.15 490.71 536.00 477.00 C 538.86 463.30 544.34 449.83 549.22 437.22 C 554.11 424.62 557.69 405.01 549.25 393.75 C 540.81 382.49 528.37 377.41 517.08 371.92 C 505.78 366.43 493.29 358.23 489.99 346.01 C 486.69 333.79 480.00 310.55 493.32 306.32 C 506.65 302.09 524.15 294.38 512.00 282.00 C 511.91 277.26 513.61 271.05 508.00 269.00 C 514.40 257.62 505.78 252.96 496.03 251.98 C 486.27 250.99 485.63 242.19 479.75 236.25 C 473.88 230.30 468.26 226.38 460.07 223.93 C 451.89 221.48 439.42 221.33 431.22 224.22 C 423.03 227.12 417.42 230.01 411.25 236.25 C 405.08 242.49 401.86 248.30 399.78 256.78 C 397.69 265.26 399.30 277.17 403.70 284.30 C 408.09 291.44 411.97 296.21 418.25 301.75 C 424.53 307.30 429.11 311.23 434.23 317.77 C 439.35 324.31 443.53 331.42 444.00 340.00 M 726.00 569.00 C 730.30 560.62 734.02 552.16 738.92 543.92 C 743.82 535.68 747.55 528.53 753.77 520.77 C 759.99 513.01 763.09 507.41 770.25 499.25 C 777.41 491.09 780.61 489.51 789.75 480.75 C 798.88 471.99 807.65 481.24 800.23 491.23 C 792.81 501.22 792.04 505.84 784.70 513.70 C 777.36 521.55 773.53 526.53 766.75 533.75 C 759.98 540.97 754.17 545.86 747.25 552.25 C 740.32 558.63 733.75 564.06 726.00 569.00 M 1049.00 591.00 C 1047.55 588.13 1048.20 585.76 1049.00 583.00 C 1051.70 573.72 1057.51 569.18 1063.75 561.75 C 1069.99 554.32 1084.49 550.97 1085.00 562.00 C 1085.51 573.03 1077.06 578.39 1072.25 585.25 C 1067.44 592.11 1053.43 599.75 1049.00 591.00 Z"/>
</g>
<g fill="#353332" fill-opacity="1.00" stroke="None">
<path d="M 638.00 342.00 C 641.24 355.93 640.00 377.03 638.00 391.00 C 638.81 394.86 637.33 398.32 634.00 400.00 C 648.33 400.00 662.67 400.00 677.00 400.00 C 676.76 396.35 680.01 391.92 678.00 389.00 C 673.84 399.66 660.16 397.87 651.00 398.00 C 641.85 398.13 646.17 389.71 646.00 385.00 C 645.83 380.29 643.72 371.26 646.00 368.00 C 648.03 365.09 656.67 367.52 659.00 368.00 C 663.15 367.35 666.79 370.20 668.00 374.00 C 669.70 370.14 669.60 362.93 668.00 359.00 C 665.63 365.52 662.27 364.89 656.00 366.00 C 649.73 367.11 643.41 364.26 646.00 357.00 C 648.59 349.74 642.86 345.35 646.00 339.00 C 648.20 334.54 661.60 337.16 665.00 338.00 C 668.47 337.82 672.49 340.48 673.00 344.00 C 675.22 341.98 673.41 337.84 674.00 335.00 C 660.67 335.00 647.33 335.00 634.00 335.00 C 637.33 336.37 637.29 338.96 638.00 342.00 Z M 966.00 374.00 C 966.15 374.05 966.00 375.00 966.00 375.00 C 972.44 383.24 960.81 391.89 964.00 400.00 C 966.23 400.33 968.08 399.86 970.00 399.00 C 970.79 383.73 976.69 370.35 979.00 356.00 C 976.73 356.92 974.52 358.07 972.00 358.00 C 976.80 362.71 970.40 370.19 970.00 376.00 C 968.90 374.87 967.24 374.62 966.00 374.00 Z M 1005.00 400.00 C 1003.77 384.92 1013.05 370.45 1015.00 356.00 C 1012.18 356.24 1009.91 358.24 1007.00 358.00 C 1011.28 361.36 1007.54 368.79 1005.99 372.99 C 1004.44 377.20 1004.15 385.30 1001.78 388.78 C 999.40 392.26 999.21 404.94 1005.00 400.00 Z M 708.00 367.00 C 707.89 365.94 709.91 362.93 709.00 361.00 C 700.18 352.94 682.90 360.88 686.23 372.77 C 689.57 384.66 706.94 378.79 706.99 391.99 C 707.04 405.20 687.52 398.64 686.00 389.00 C 682.97 398.47 692.91 401.32 700.00 401.00 C 707.08 400.67 712.52 396.05 712.99 389.01 C 713.46 381.96 705.64 378.72 701.23 375.77 C 696.82 372.82 686.77 369.45 692.25 362.25 C 697.74 355.06 704.40 363.66 708.00 367.00 Z M 762.00 381.00 C 759.87 366.11 782.07 378.15 790.00 375.00 C 795.67 362.43 775.34 353.28 764.25 360.25 C 753.15 367.21 751.20 383.01 758.70 393.30 C 766.19 403.60 784.40 404.51 790.00 392.00 C 777.98 403.11 764.05 395.34 762.00 381.00 Z M 809.00 358.00 C 805.32 358.99 801.92 360.90 798.00 361.00 C 803.73 365.60 802.16 374.35 802.00 381.00 C 801.84 387.65 804.28 396.30 798.00 400.00 C 803.00 400.00 808.00 400.00 813.00 400.00 C 806.60 396.53 809.35 387.36 809.00 381.00 C 808.65 374.64 807.67 367.33 813.00 363.00 C 808.34 366.28 808.77 362.21 809.00 358.00 Z M 830.00 370.00 C 831.22 374.91 830.46 380.26 830.00 385.00 C 829.61 390.26 831.86 397.44 826.00 400.00 C 831.33 400.00 836.67 400.00 842.00 400.00 C 839.72 398.96 839.07 398.25 838.00 396.00 C 834.56 388.73 838.03 377.29 837.00 369.00 C 836.25 357.91 820.93 354.71 814.00 362.00 C 821.12 361.54 827.86 361.35 830.00 370.00 Z M 926.00 397.00 C 914.76 397.83 921.75 380.70 919.99 371.01 C 918.23 361.31 910.96 356.52 900.01 359.01 C 889.06 361.50 889.11 373.53 897.75 362.75 C 906.40 351.98 916.17 368.38 913.00 376.00 C 904.93 379.76 886.54 377.70 887.01 390.99 C 887.48 404.28 905.89 401.70 913.00 396.00 C 914.09 402.38 924.38 402.37 926.00 397.00 Z M 722.00 389.00 C 720.77 390.22 720.42 394.12 721.00 396.00 C 725.12 404.16 739.79 402.19 745.23 396.23 C 750.66 390.27 745.24 378.16 737.69 376.31 C 730.15 374.45 719.61 363.72 731.00 360.00 C 723.83 360.38 717.95 366.55 722.08 373.92 C 726.22 381.29 731.43 379.58 737.25 384.75 C 743.06 389.92 743.28 396.18 735.22 399.22 C 727.17 402.25 726.27 391.56 722.00 389.00 Z M 881.00 359.00 C 870.33 359.00 859.67 359.00 849.00 359.00 C 850.16 362.10 846.91 365.80 849.00 368.00 C 852.25 358.31 863.99 361.50 872.00 361.00 C 864.36 374.16 853.76 386.32 847.00 400.00 C 858.33 400.00 869.67 400.00 881.00 400.00 C 880.41 397.06 882.59 394.91 882.00 392.00 C 876.85 400.43 865.73 397.58 857.00 398.00 C 863.03 384.08 874.23 372.49 881.00 359.00 Z M 995.00 375.00 C 999.97 373.86 997.21 382.88 994.30 384.30 C 991.39 385.72 983.65 387.09 982.00 389.00 C 981.47 389.95 981.67 394.93 982.00 396.00 C 984.22 400.29 987.95 399.35 992.00 397.00 C 995.06 396.22 992.71 397.99 991.00 399.00 C 984.08 406.06 974.92 395.90 977.00 390.00 C 979.08 384.10 982.64 375.92 989.00 375.00 C 990.68 374.36 993.38 372.86 995.00 375.00 Z M 950.00 688.00 C 947.51 681.87 949.00 672.04 949.00 665.00 C 949.00 656.67 949.00 648.33 949.00 640.00 C 945.93 640.52 943.14 641.88 940.00 642.00 C 946.50 645.64 944.12 655.84 943.00 662.00 C 930.86 652.69 917.15 663.90 917.00 677.00 C 916.86 690.10 932.48 700.32 942.00 689.00 C 944.21 692.94 948.33 693.80 954.00 693.00 C 951.94 691.77 950.90 690.20 950.00 688.00 Z M 842.00 643.00 C 834.49 642.96 821.73 639.44 816.93 648.93 C 812.12 658.41 819.91 668.46 828.92 670.08 C 837.94 671.70 844.74 683.85 836.23 690.23 C 827.72 696.60 817.27 688.66 816.00 680.00 C 813.72 683.01 815.63 688.17 815.00 692.00 C 823.66 692.67 834.42 696.23 841.75 688.75 C 849.08 681.27 845.36 670.42 837.23 666.77 C 829.09 663.12 816.68 658.55 821.75 647.75 C 826.82 636.95 841.86 645.61 842.00 643.00 Z M 861.00 649.00 C 858.59 649.01 857.28 651.45 855.00 652.00 C 857.10 658.15 852.25 658.42 850.00 661.00 C 859.17 662.07 854.15 677.57 855.01 685.99 C 855.87 694.42 867.57 697.50 872.00 689.00 C 855.32 698.70 862.38 670.46 861.00 661.00 C 864.18 660.47 868.57 662.13 871.00 660.00 C 868.65 657.75 864.17 659.61 861.00 659.00 C 861.00 655.67 861.00 652.33 861.00 649.00 Z M 885.00 685.00 C 886.96 691.47 892.58 692.88 898.25 688.25 C 903.92 683.61 901.30 675.48 902.00 669.00 C 902.70 662.52 899.13 664.41 898.00 661.00 C 897.14 658.41 899.94 658.54 903.00 659.00 C 904.33 659.05 905.67 658.96 907.00 659.00 C 908.67 670.10 902.72 686.14 912.00 693.00 C 907.65 692.44 899.00 695.45 901.00 688.00 C 895.99 693.98 884.28 697.36 880.08 688.92 C 875.89 680.48 883.26 667.66 876.00 661.00 C 874.00 659.00 878.00 659.00 880.00 659.00 C 883.00 659.00 886.91 658.54 884.25 680.56 L 885.00 685.00 Z M 969.00 658.00 C 965.84 659.55 962.68 661.27 959.00 661.00 C 965.44 667.79 965.47 686.15 959.00 693.00 C 963.67 693.00 968.33 693.00 973.00 693.00 C 964.48 684.89 971.08 669.23 969.00 658.00 Z M 997.00 658.00 C 975.59 655.96 970.61 690.85 993.00 694.00 C 1015.39 697.15 1019.03 660.10 997.00 658.00 Z"/>
</g>
</svg>
