<?xml version="1.0" standalone="no"?>
<!DOCTYPE svg PUBLIC "-//W3C//DTD SVG 20010904//EN"
 "http://www.w3.org/TR/2001/REC-SVG-20010904/DTD/svg10.dtd">
<svg version="1.0" xmlns="http://www.w3.org/2000/svg"
 width="2080.447705pt" height="1284.016902pt" viewBox="0 0 2080.447705 1284.016902"
 preserveAspectRatio="xMidYMid meet">
<metadata>
Created by potrace 1.16, written by Peter Selinger 2001-2019
</metadata>
<g transform="translate(-270.232674,1478.572876) scale(0.100000,-0.100000)"
fill="#AF8B3B" stroke="none">
<path d="M20240 14775 c-143 -32 -251 -88 -349 -180 -74 -70 -110 -129 -136
-219 -38 -129 2 -287 86 -343 22 -14 38 -29 37 -32 -2 -3 -20 -35 -40 -71 -81
-143 -136 -380 -123 -536 4 -45 19 -117 34 -163 l28 -82 -31 -24 c-41 -30
-155 -87 -234 -115 -55 -20 -102 -57 -102 -80 0 -4 40 -47 88 -96 83 -84 143
-165 207 -279 36 -63 23 -50 -45 45 -119 167 -269 309 -391 370 -211 107 -407
72 -844 -150 -292 -148 -499 -280 -926 -592 -162 -118 -334 -242 -384 -275
-191 -129 -379 -219 -575 -277 -47 -14 -78 -25 -69 -25 31 -1 194 50 299 95
203 85 419 221 782 491 460 341 803 547 1147 688 231 95 360 107 511 48 66
-26 200 -105 200 -119 0 -3 -19 8 -42 24 -96 66 -201 106 -299 117 -123 13
-275 -34 -554 -171 -314 -153 -616 -345 -1012 -641 -278 -208 -347 -256 -495
-341 -259 -150 -514 -238 -696 -243 -39 -1 -72 -4 -72 -7 0 -8 42 -42 52 -42
20 0 135 -86 192 -144 160 -160 253 -369 341 -766 20 -91 43 -175 51 -187 8
-13 10 -23 4 -23 -25 0 -52 73 -119 320 -61 226 -146 431 -221 538 -44 63
-104 116 -123 109 -7 -3 -28 10 -47 29 -42 39 -179 109 -255 129 -136 35 -361
28 -600 -20 -143 -29 -242 -58 -390 -115 -60 -23 -117 -42 -125 -42 -39 1
-174 -69 -276 -141 -110 -78 -289 -265 -382 -398 -122 -174 -280 -419 -269
-419 6 0 2 -9 -8 -20 -22 -25 -9 -26 19 -2 54 46 -74 -94 -137 -150 -131 -117
-358 -298 -367 -293 -5 3 -21 -2 -36 -12 -15 -9 -33 -18 -40 -19 -7 -1 -45
-26 -86 -56 -214 -157 -149 -93 217 212 369 309 420 362 617 650 178 260 290
390 438 509 232 187 549 327 876 387 75 14 148 19 302 19 134 0 189 3 160 8
-23 5 -124 6 -223 3 -210 -6 -346 -30 -559 -100 -442 -146 -717 -361 -999
-781 -115 -172 -205 -291 -278 -370 -35 -37 -183 -167 -329 -289 -146 -121
-375 -315 -510 -431 -571 -491 -735 -606 -1093 -771 -307 -142 -535 -258 -629
-321 -244 -163 -509 -393 -889 -773 -277 -275 -329 -335 -329 -379 0 -54 112
-226 244 -374 39 -44 82 -93 95 -110 45 -55 -10 -14 -101 75 -96 94 -158 179
-227 305 -33 60 -54 89 -68 91 -13 2 -50 -24 -114 -83 -209 -193 -345 -263
-560 -289 l-46 -5 -6 56 c-11 106 -57 138 -225 154 -125 12 -317 0 -376 -25
-27 -11 -37 -23 -45 -53 -7 -26 -6 -250 4 -733 12 -627 12 -698 -2 -727 -8
-19 -20 -36 -26 -40 -24 -15 -348 -44 -552 -49 -169 -5 -256 -2 -373 10 -557
59 -1130 225 -1822 526 -395 171 -470 204 -565 242 -352 141 -604 206 -837
215 -133 6 -139 5 -173 -18 -35 -24 -47 -43 -21 -33 27 10 274 -16 395 -41
253 -54 468 -133 996 -368 617 -274 908 -381 1340 -492 425 -110 812 -145
1235 -111 113 9 215 19 228 21 38 9 25 -8 -38 -49 -239 -153 -595 -188 -1090
-106 -645 108 -1383 325 -2223 654 -683 268 -869 323 -1122 333 -163 6 -242
-7 -365 -60 l-79 -34 -6 46 c-24 176 -107 263 -224 231 -114 -30 -181 -204
-201 -519 -10 -163 1 -365 27 -506 l17 -90 7 60 c4 33 12 177 18 320 17 389
49 565 116 632 83 83 159 8 168 -162 l2 -50 -44 -3 c-44 -3 -81 17 -81 44 0
23 31 44 63 44 24 0 28 3 17 10 -48 31 -130 -10 -130 -65 0 -69 61 -114 140
-101 l39 6 5 -42 c3 -24 7 -128 10 -233 4 -193 24 -405 36 -405 11 0 22 192
25 460 l3 245 47 23 c26 13 82 35 124 50 69 24 89 27 221 27 131 0 157 -4 272
-33 193 -50 388 -119 763 -272 1021 -415 1755 -636 2420 -726 180 -25 543 -25
671 -1 228 42 397 120 520 239 l51 50 -1 -119 c-1 -73 4 -132 12 -154 16 -47
60 -88 108 -102 29 -8 944 -12 3368 -14 1831 -1 3330 -4 3333 -6 2 -2 -2 -9
-9 -15 -15 -11 -2636 -27 -7253 -42 -1567 -5 -3172 -10 -3565 -12 l-715 -3 -7
55 c-19 131 -75 149 -544 171 -295 14 -621 8 -678 -12 -53 -19 -75 -53 -86
-130 -16 -111 -33 -1132 -26 -1589 8 -573 33 -1276 46 -1322 25 -88 107 -104
525 -102 306 1 484 17 545 49 65 34 65 32 65 620 -1 400 -8 709 -29 1260 -17
424 -26 758 -22 797 9 80 26 104 82 112 l41 6 6 -662 c9 -857 8 -2058 -2
-2126 -9 -63 -25 -82 -83 -93 -23 -5 -213 -13 -421 -18 -436 -12 -617 -21
-617 -31 0 -4 26 -10 58 -14 31 -4 109 -14 172 -22 182 -24 621 -30 755 -10
162 23 184 31 201 73 33 78 36 248 29 1584 l-7 1317 1704 5 c936 4 3472 11
5633 18 2162 6 3993 14 4070 18 101 5 149 12 173 24 17 10 32 19 32 20 0 1 6
19 14 40 l13 38 2742 2 2743 3 -6 -50 c-4 -28 -9 -105 -12 -171 -9 -181 14
-216 188 -285 162 -64 214 -115 225 -223 11 -108 -41 -200 -141 -252 -180 -92
-423 34 -443 230 -7 71 16 146 88 281 47 89 59 120 59 157 0 65 -28 94 -105
108 -44 8 -1386 10 -4995 5 -8097 -10 -11790 -29 -11863 -61 -45 -19 -74 -138
-83 -340 -4 -82 -2 -185 5 -249 16 -160 46 -200 162 -216 135 -19 4004 -63
10504 -120 3077 -27 3999 -32 5692 -34 1648 -1 1834 1 1848 15 34 34 40 129
40 674 0 477 -2 534 -17 567 -9 21 -28 43 -42 50 -25 11 -26 15 -26 95 0 58 4
85 13 88 23 9 710 35 908 35 164 0 199 -3 209 -15 10 -12 12 -242 6 -1158 -4
-628 -12 -1398 -19 -1712 l-12 -569 -25 -7 c-31 -9 -510 -9 -647 0 -62 3 -107
11 -115 19 -10 10 -14 132 -20 560 -9 714 -26 1627 -42 2174 -11 377 -15 440
-29 462 -25 38 -52 49 -71 30 -20 -20 -20 -81 -1 -1159 28 -1612 43 -2072 67
-2123 7 -15 30 -35 50 -45 77 -38 790 -43 870 -7 55 26 64 87 78 590 33 1160
44 2101 32 2596 -8 315 -11 354 -28 389 -31 64 -63 76 -222 82 -249 10 -977
-26 -1037 -52 -50 -20 -65 -62 -65 -179 l0 -95 -232 6 c-128 3 -235 7 -237 10
-3 2 15 115 38 251 117 675 200 1171 286 1717 99 628 125 810 125 875 l0 38
30 -11 c68 -26 114 22 150 154 16 62 21 103 18 164 -3 73 -7 88 -37 136 -19
30 -52 83 -74 119 -101 167 -182 196 -342 124 -130 -59 -252 -104 -298 -110
-97 -14 -205 89 -346 330 -66 113 -235 450 -336 671 -113 249 -220 459 -279
550 -52 79 -93 128 -231 275 -99 106 -141 174 -202 329 -114 288 -150 437
-183 756 -11 110 -27 228 -35 263 -22 93 -21 97 34 131 27 16 105 69 173 117
146 103 207 134 266 134 48 0 71 -10 172 -76 162 -104 236 -99 332 25 65 83
171 194 222 232 34 26 48 29 110 29 78 1 142 12 160 30 7 7 11 73 11 198 l0
187 42 96 c103 234 113 449 30 617 -21 42 -22 50 -10 72 24 44 11 146 -27 219
-73 137 -338 323 -549 387 l-61 18 0 47 c0 67 -56 174 -123 236 -55 50 -139
96 -217 120 -69 21 -214 25 -290 8z m264 -20 c77 -20 153 -57 196 -95 l35 -31
-45 29 c-98 65 -192 92 -314 92 -140 0 -263 -38 -402 -124 l-59 -37 40 36
c122 110 385 173 549 130z m59 -102 c148 -70 268 -246 197 -291 -11 -7 -20 -8
-20 -2 0 41 -327 38 -499 -5 -184 -45 -279 -106 -326 -207 l-23 -49 -20 28
c-125 179 49 456 343 545 46 14 86 17 170 15 100 -3 117 -6 178 -34z m147
-292 c24 -7 -269 -3 -300 3 -8 2 50 4 130 4 80 0 156 -3 170 -7z m-332 -8
c-10 -2 -26 -2 -35 0 -10 3 -2 5 17 5 19 0 27 -2 18 -5z m-65 -10 c-7 -2 -19
-2 -25 0 -7 3 -2 5 12 5 14 0 19 -2 13 -5z m-46 -9 c-3 -3 -12 -4 -19 -1 -8 3
-5 6 6 6 11 1 17 -2 13 -5z m48 -42 c-6 -5 -34 -19 -63 -31 -73 -30 -146 -75
-221 -134 -55 -44 -63 -48 -56 -26 21 72 106 132 245 173 94 27 109 30 95 18z
m564 -23 c107 -30 190 -69 300 -143 156 -104 247 -205 266 -293 9 -45 -7 -41
-27 7 -19 45 -59 70 -86 54 -9 -6 -51 -61 -92 -122 -76 -113 -180 -245 -188
-238 -2 3 3 40 12 83 28 141 38 249 34 381 -3 114 -6 134 -24 159 -30 40 -81
43 -124 7 -17 -15 -103 -115 -191 -223 -173 -213 -248 -301 -249 -287 0 4 10
79 21 165 37 271 28 388 -30 404 -55 14 -110 -84 -186 -333 -64 -209 -112
-321 -180 -427 -57 -88 -185 -223 -242 -255 l-30 -18 -23 68 c-66 197 -7 522
126 697 84 110 316 255 471 296 43 11 134 24 203 28 69 4 134 9 144 10 11 0
54 -9 95 -20z m-406 -231 c-2 -29 -13 -116 -23 -193 -31 -230 -30 -281 4 -296
54 -25 161 68 338 291 153 192 201 250 209 250 23 0 12 -240 -21 -448 -31
-191 -27 -222 31 -222 60 0 178 123 283 294 l60 96 23 -57 c13 -31 23 -57 23
-58 0 -23 -291 -299 -439 -417 -150 -120 -220 -129 -236 -30 -22 137 -46 183
-110 208 -106 40 -224 -16 -286 -136 -28 -53 -33 -174 -10 -227 12 -30 11 -36
-14 -78 -53 -91 -120 -104 -235 -48 -51 25 -160 121 -160 140 0 4 23 23 51 42
77 52 184 162 235 242 62 95 101 188 184 439 97 292 100 298 93 208z m57 -403
c0 -2 -10 -9 -22 -15 -22 -11 -22 -10 -4 4 21 17 26 19 26 11z m930 -62 c5
-21 15 -76 21 -123 14 -110 -1 -185 -72 -358 -51 -124 -52 -129 -53 -232 -1
-58 3 -133 8 -166 l8 -62 -100 -4 c-98 -4 -102 -5 -157 -42 -63 -44 -172 -157
-237 -246 -24 -32 -52 -63 -63 -68 -31 -14 -82 5 -171 64 -44 30 -102 61 -128
70 -107 37 -217 -7 -436 -174 -80 -60 -146 -109 -147 -108 -1 1 -9 37 -18 81
-58 288 -160 489 -353 696 l-33 36 47 12 c49 13 145 55 205 91 l35 22 65 -64
c44 -45 88 -77 143 -104 70 -34 89 -39 150 -39 97 0 123 16 200 129 13 19 14
19 44 -2 84 -60 174 -79 207 -42 23 25 17 65 -25 160 -36 82 -41 154 -15 216
15 35 18 37 29 21 7 -9 19 -51 25 -92 19 -115 61 -152 165 -143 97 8 245 117
485 357 80 81 149 148 153 149 4 1 12 -15 18 -35z m-420 -78 c-7 -9 -15 -13
-19 -10 -3 3 1 10 9 15 21 14 24 12 10 -5z m-584 -204 c-25 -44 -46 -84 -46
-89 0 -4 -7 -17 -16 -28 -14 -18 -15 -15 -9 31 9 68 40 130 78 154 17 11 33
18 35 16 2 -2 -17 -39 -42 -84z m44 -118 c0 -21 13 -66 30 -101 17 -35 30 -68
30 -73 0 -11 -85 30 -119 58 l-23 19 33 67 c18 37 37 67 41 67 4 0 8 -17 8
-37z m395 21 c-46 -36 -135 -58 -149 -36 -2 4 10 6 28 4 22 -3 50 5 82 22 57
29 67 32 39 10z m-1015 -24 c-8 -5 -19 -10 -25 -10 -5 0 -3 5 5 10 8 5 20 10
25 10 6 0 3 -5 -5 -10z m288 -256 c35 -4 57 0 87 15 l40 21 -28 -25 c-21 -19
-40 -25 -72 -25 -44 0 -150 33 -160 50 -3 5 15 0 40 -11 25 -11 66 -22 93 -25z
m-992 -8 c154 -56 287 -174 419 -371 117 -174 229 -433 266 -610 10 -49 28
-178 39 -285 12 -107 32 -250 46 -317 48 -241 170 -558 262 -681 22 -29 93
-110 157 -179 64 -69 134 -153 157 -186 44 -64 153 -281 294 -582 239 -512
437 -844 564 -944 119 -94 224 -88 480 30 135 62 168 64 217 12 20 -21 65 -83
100 -138 l65 -100 -5 -80 c-3 -44 -14 -107 -25 -140 l-20 -60 -1 60 c-4 252
-160 372 -356 276 -54 -26 -92 -56 -167 -132 -95 -97 -99 -99 -143 -99 -91 0
-150 43 -475 344 -311 290 -428 405 -603 596 -308 338 -472 561 -685 937 -297
522 -492 902 -572 1113 -47 127 -53 152 -50 200 9 113 4 376 -8 417 -16 54
-57 103 -86 103 -12 0 -33 -12 -47 -26 -23 -25 -24 -31 -23 -157 1 -101 6
-151 23 -211 11 -44 20 -81 18 -82 -7 -8 -221 61 -305 98 -225 99 -482 312
-673 559 -85 110 -99 124 -122 120 -24 -4 16 25 131 97 298 186 605 346 772
402 160 54 240 58 356 16z m2152 -303 c-21 -2 -57 -2 -80 0 -24 2 -7 4 37 4
44 0 63 -2 43 -4z m-3428 -227 c0 -2 -24 -21 -52 -42 -29 -20 -69 -49 -88 -63
-19 -13 -30 -19 -24 -12 11 11 156 120 162 121 1 0 2 -2 2 -4z m62 -158 c79
-117 310 -350 431 -435 169 -119 388 -215 557 -243 41 -7 79 -17 84 -21 8 -7
115 -323 116 -341 0 -17 -490 -306 -738 -435 l-143 -74 -84 168 c-103 208
-193 353 -405 648 -251 351 -326 479 -300 510 7 8 69 55 139 105 69 49 160
116 201 149 41 33 76 60 77 60 1 1 30 -41 65 -91z m-596 -237 c1 -33 59 -160
107 -236 17 -27 112 -167 211 -309 276 -400 365 -548 441 -726 44 -104 73
-134 126 -127 80 11 357 152 689 353 63 39 129 78 145 88 28 17 27 16 -5 -12
-56 -49 -343 -225 -490 -300 -170 -88 -291 -136 -439 -174 -163 -43 -384 -49
-616 -19 -439 57 -613 45 -623 -42 -4 -31 -17 -35 -31 -8 -6 10 -27 92 -46
182 -42 188 -107 395 -155 489 -80 159 -189 292 -299 365 -33 22 -61 43 -61
46 0 3 37 9 83 12 222 17 546 157 834 361 65 47 120 85 123 85 3 1 5 -12 6
-28z m1705 -149 c6 -59 9 -119 7 -132 -6 -38 -28 90 -34 195 -6 123 12 80 27
-63z m-3000 -296 c164 -29 251 -109 363 -332 90 -180 147 -340 210 -590 20
-77 45 -170 56 -209 11 -38 20 -80 20 -92 0 -27 -45 -53 -140 -78 -89 -25
-117 -40 -135 -75 -22 -42 -18 -99 10 -156 28 -55 155 -207 451 -534 327 -362
493 -575 644 -825 171 -285 292 -600 306 -805 12 -162 -44 -309 -159 -416 -70
-65 -133 -99 -235 -125 -124 -32 -263 -26 -635 26 -717 99 -1368 155 -1821
155 l-129 0 8 38 c4 20 10 155 14 299 3 144 9 264 13 268 20 20 767 118 1041
136 258 17 261 16 403 -92 142 -108 264 -185 400 -251 121 -59 169 -69 204
-40 23 18 23 22 12 61 -32 104 -164 243 -300 314 -86 45 -219 84 -318 93 -74
7 -79 9 -148 64 -249 201 -761 698 -904 878 -45 56 -82 106 -82 111 0 4 53 43
118 86 251 167 563 417 617 496 32 46 28 64 -19 87 -23 12 -38 11 -98 -3 -156
-39 -564 -273 -693 -399 -68 -67 -88 -111 -83 -184 l3 -54 -200 -114 c-212
-122 -548 -295 -805 -414 -232 -108 -707 -320 -860 -385 -1360 -576 -1332
-561 -1925 -1035 -121 -97 -266 -211 -323 -253 -113 -86 -313 -219 -322 -215
-9 4 -138 152 -212 244 -66 83 -138 195 -138 217 0 27 537 540 785 750 342
291 489 380 1005 613 391 177 603 326 1270 899 168 143 377 320 465 392 157
128 291 258 372 358 22 28 93 127 158 220 209 302 309 415 485 544 312 231
911 387 1251 327z m414 -237 c30 -44 52 -85 49 -90 -3 -5 0 -8 6 -7 17 4 82
-127 134 -267 24 -66 65 -208 92 -315 55 -226 69 -250 146 -250 24 0 72 -9
106 -20 87 -27 181 -27 216 1 31 25 37 82 9 98 -27 16 -7 14 188 -16 143 -22
209 -27 374 -27 223 -1 292 9 467 70 255 89 692 334 875 492 l70 61 99 -192
c122 -237 388 -717 475 -855 232 -371 590 -774 1124 -1265 401 -368 469 -420
569 -433 79 -11 113 2 184 69 36 34 63 55 60 47 -33 -91 -89 -341 -147 -655
-94 -511 -274 -1613 -346 -2125 -19 -140 -38 -267 -41 -283 l-6 -27 -1806 2
c-994 2 -2229 4 -2746 6 l-939 2 7 48 c11 86 19 318 12 366 -9 57 -49 107
-103 126 -62 22 -484 23 -1923 6 -729 -9 -1855 -16 -2502 -16 l-1178 0 0 24
c0 46 32 190 62 280 94 282 246 482 446 584 110 57 126 71 120 106 -4 20 3 27
51 51 119 58 354 225 716 511 464 365 546 413 1150 669 1383 586 1953 856
2454 1163 l114 70 68 -88 c151 -195 392 -435 764 -760 77 -67 142 -126 143
-131 2 -5 -35 -9 -82 -9 -114 0 -421 -32 -726 -76 -324 -46 -410 -62 -440 -82
-15 -10 -42 -16 -70 -15 -42 1 -42 1 -10 -5 21 -4 36 -14 38 -24 3 -16 -7 -17
-115 -15 -104 2 -125 5 -173 28 -68 32 -111 74 -183 177 -88 126 -141 157
-259 150 -42 -2 -88 -11 -107 -21 -19 -9 -36 -15 -38 -13 -2 2 22 17 54 32
119 59 236 30 321 -76 138 -176 221 -241 302 -239 31 1 29 2 -14 10 -71 11
-145 65 -214 156 -117 154 -190 200 -305 191 -118 -10 -178 -53 -307 -218
-192 -246 -250 -277 -572 -299 -178 -13 -278 -36 -385 -88 -92 -45 -157 -101
-188 -164 -30 -59 -32 -102 -5 -129 24 -24 72 -26 185 -5 103 18 278 19 380 1
44 -8 168 -36 275 -62 l195 -48 435 -1 c426 -1 438 -1 563 -27 70 -14 136 -33
145 -41 33 -30 73 -36 329 -47 540 -22 1024 -71 1718 -172 347 -51 510 -56
644 -20 241 65 389 203 457 428 25 80 25 277 1 394 -50 238 -218 619 -379 861
-160 240 -272 376 -629 765 -353 384 -416 462 -393 483 5 5 47 21 94 36 47 15
104 38 126 51 41 23 71 71 61 96 -4 9 -6 8 -6 -3 -1 -9 -7 -21 -13 -27 -10 -8
-13 -2 -14 26 -1 40 -6 61 -16 77 -3 6 -14 39 -23 75 -9 36 -20 70 -25 75 -4
6 -13 36 -20 68 -7 31 -17 57 -22 57 -4 0 -8 12 -8 28 0 40 -55 219 -71 232
-3 3 -12 23 -20 45 -8 22 -19 51 -26 64 -7 14 -10 28 -7 33 3 4 0 8 -5 8 -6 0
-11 9 -11 20 0 11 -4 20 -10 20 -5 0 -10 9 -10 21 0 11 -13 48 -29 82 -106
227 -108 253 -6 106z m2365 -344 c0 -2 -10 -9 -22 -15 -22 -11 -22 -10 -4 4
21 17 26 19 26 11z m-65 -41 c-79 -60 -493 -284 -526 -284 -21 0 -24 5 -33 45
l-6 30 16 -28 c12 -22 20 -27 37 -21 47 14 229 106 372 188 149 85 178 99 140
70z m55 -89 c0 -9 -193 -118 -331 -185 -236 -115 -424 -168 -634 -177 -117 -5
-149 -3 -515 42 -172 21 -334 22 -382 2 -40 -17 -53 -6 -18 13 63 34 254 30
545 -9 369 -51 571 -31 865 84 118 46 329 150 416 204 52 33 54 34 54 26z
m-1789 -389 c56 -26 50 -33 -12 -16 -20 6 -42 17 -49 25 -18 21 -1 19 61 -9z
m-2921 10 c0 -2 -8 -10 -17 -17 -16 -13 -17 -12 -4 4 13 16 21 21 21 13z
m2610 -191 c-8 -9 -25 -22 -39 -29 -30 -15 -211 -59 -217 -53 -10 10 27 26
106 46 47 12 101 30 120 40 39 21 49 19 30 -4z m-168 -241 c59 -76 165 -197
413 -469 110 -121 234 -261 276 -311 84 -101 202 -254 196 -254 -2 0 -45 51
-95 113 -139 172 -195 229 -228 230 -22 2 -58 35 -185 172 -302 328 -428 482
-454 555 -18 52 -18 45 2 66 17 16 18 16 24 -13 3 -17 26 -57 51 -89z m-697
-14 c-92 -23 -154 -48 -305 -126 -69 -35 -114 -55 -100 -45 41 32 254 140 327
166 37 13 86 24 108 24 36 -1 33 -3 -30 -19z m-86 -108 c-226 -176 -620 -445
-632 -433 -14 14 17 74 60 113 85 75 309 214 478 294 96 46 133 56 94 26z m1
-26 c0 -15 -333 -267 -473 -359 -141 -92 -137 -90 -137 -78 0 6 33 32 73 58
112 73 332 229 437 310 95 73 100 76 100 69z m-690 -494 c0 -4 -21 -20 -47
-36 -162 -100 -428 -258 -488 -290 -126 -68 -1263 -571 -1271 -563 -2 2 92 47
209 100 637 289 1160 550 1464 732 103 61 133 74 133 57z m146 -89 c15 -20 23
-33 16 -29 -13 8 -56 66 -49 66 3 0 17 -17 33 -37z m54 -68 c13 -14 21 -25 18
-25 -2 0 -15 11 -28 25 -13 14 -21 25 -18 25 2 0 15 -11 28 -25z m50 -60 c13
-14 21 -25 18 -25 -2 0 -15 11 -28 25 -13 14 -21 25 -18 25 2 0 15 -11 28 -25z
m110 -120 c35 -36 62 -65 59 -65 -2 0 -34 29 -69 65 -35 36 -62 65 -59 65 2 0
34 -29 69 -65z m6374 -461 c-32 -19 -66 -41 -75 -47 -8 -7 -1 1 15 16 31 29
93 66 110 67 6 0 -17 -16 -50 -36z m195 -42 c13 -10 31 -28 39 -41 16 -23 15
-23 -22 3 -41 28 -111 42 -153 31 -35 -9 -22 6 20 22 39 15 84 9 116 -15z
m-8759 -62 c-8 -5 -19 -10 -25 -10 -5 0 -3 5 5 10 8 5 20 10 25 10 6 0 3 -5
-5 -10z m8720 -45 c39 -20 54 -77 47 -175 -3 -41 -82 -538 -176 -1105 -94
-566 -199 -1210 -234 -1430 l-63 -400 -133 -3 -134 -3 6 28 c8 40 167 1008
231 1408 199 1235 259 1559 303 1648 23 46 96 61 153 32z m-351 -25 c-26 -34
-75 -60 -116 -60 -26 0 -133 43 -133 54 0 3 19 -4 43 -14 24 -11 64 -20 95
-20 46 0 57 4 90 35 45 42 49 43 21 5z m-7463 -19 c18 -11 65 -62 107 -113
127 -160 208 -208 367 -217 94 -6 95 -6 93 -31 0 -14 -6 -126 -12 -249 -6
-123 -13 -226 -15 -229 -3 -2 -42 4 -88 14 -73 16 -132 19 -483 20 -220 0
-422 4 -450 8 -27 4 -124 25 -215 46 -283 67 -333 74 -490 73 -97 0 -169 -6
-219 -17 -41 -9 -76 -14 -78 -12 -2 2 13 22 34 44 44 46 174 113 268 137 33 9
141 22 241 30 200 17 266 31 353 74 81 41 153 110 260 250 115 149 169 189
256 190 23 1 54 -7 71 -18z m2083 -82 c251 -20 415 -79 541 -196 39 -36 80
-79 92 -96 12 -18 -16 4 -63 48 -162 154 -323 211 -649 230 -170 9 -467 -19
-930 -89 -91 -14 -208 -31 -260 -38 -113 -16 -106 -3 -110 -208 l-3 -135 -11
145 c-8 106 -14 144 -23 143 -14 -3 -17 15 -5 34 21 34 125 54 582 112 202 26
314 38 525 54 91 8 188 6 314 -4z m290 -139 c44 -17 105 -48 137 -69 62 -40
162 -137 152 -146 -9 -9 -184 95 -327 194 -85 58 -74 64 38 21z m-20 -54 c58
-38 152 -95 210 -127 137 -75 137 -75 130 -83 -15 -16 -256 122 -372 211 -124
97 -116 97 32 -1z m-2858 5 c-14 -25 -72 -75 -123 -105 -65 -38 -155 -54 -358
-65 -102 -6 -210 -17 -240 -25 -76 -21 -75 -11 2 12 75 23 175 38 313 47 173
11 267 41 365 118 53 42 54 43 41 18z m1142 -367 c0 -247 -2 -254 -49 -254
-20 0 -82 10 -137 21 -96 20 -122 21 -442 16 -389 -7 -468 -1 -679 49 -347 83
-362 86 -526 87 -85 1 -184 -1 -220 -5 l-65 -7 49 14 c73 21 246 36 323 29
106 -9 235 -32 388 -69 243 -58 242 -58 685 -60 384 -1 421 -3 500 -22 47 -12
87 -19 89 -18 2 2 7 100 12 217 5 117 14 226 19 242 6 16 10 40 10 52 0 13 5
24 10 24 6 0 11 8 11 18 1 9 7 -17 12 -58 6 -41 11 -165 10 -276z m6774 -246
c-3 -8 -6 -5 -6 6 -1 11 2 17 5 13 3 -3 4 -12 1 -19z m-3803 -40 c-42 -82
-168 -170 -294 -204 -116 -32 -345 -26 -645 19 -539 79 -1260 145 -1782 163
-167 6 -203 10 -203 21 0 13 29 14 198 8 648 -21 1136 -67 1892 -181 405 -60
623 -22 778 136 37 37 68 68 70 69 1 0 -5 -13 -14 -31z m4172 -60 c-10 -89
-104 -680 -121 -758 l-15 -65 6 60 c9 99 125 825 132 825 3 0 2 -28 -2 -62z
m-11806 -145 c79 -141 217 -300 311 -359 25 -16 45 -33 45 -38 -1 -5 -25 -22
-54 -37 -282 -149 -466 -465 -537 -921 l-6 -38 -120 0 c-127 0 -200 12 -221
37 -8 10 -15 76 -19 192 -8 193 -19 247 -90 466 -38 118 -42 142 -47 262 l-5
131 49 7 c171 24 295 63 384 122 70 46 183 139 235 192 21 23 40 41 41 41 1 0
17 -26 34 -57z m11397 -5 c-3 -8 -6 -5 -6 6 -1 11 2 17 5 13 3 -3 4 -12 1 -19z
m-12230 -21 c50 -27 73 -63 72 -116 l0 -46 -17 44 c-9 24 -28 52 -42 62 -28
21 -257 58 -375 60 -55 1 -64 3 -40 9 17 5 107 8 200 7 138 -2 176 -6 202 -20z
m12220 -39 c-3 -7 -5 -2 -5 12 0 14 2 19 5 13 2 -7 2 -19 0 -25z m-12257 -47
c32 -18 40 -30 40 -64 0 -22 -9 -33 -49 -58 -131 -80 -135 -262 -15 -642 74
-233 94 -316 94 -394 0 -76 -13 -118 -39 -128 -8 -3 -79 -19 -156 -35 -77 -16
-167 -39 -199 -50 -33 -11 -61 -18 -63 -16 -2 2 -8 221 -13 487 -6 266 -15
554 -20 639 -6 85 -10 181 -10 212 0 51 2 57 23 61 12 3 103 4 202 3 132 -1
187 -5 205 -15z m-436 -426 c3 -218 2 -283 -4 -205 -17 238 -29 556 -23 595
l8 40 7 -55 c4 -30 9 -199 12 -375z m901 389 c-26 -19 -169 -64 -203 -63 -15
0 7 9 48 19 41 10 95 28 120 39 55 24 61 25 35 5z m11772 -46 c-3 -7 -5 -2 -5
12 0 14 2 19 5 13 2 -7 2 -19 0 -25z m-10 -55 c-3 -10 -5 -4 -5 12 0 17 2 24
5 18 2 -7 2 -21 0 -30z m-12178 -363 c7 -25 30 -100 51 -168 47 -148 70 -271
69 -372 l0 -75 -18 85 c-10 47 -42 157 -70 245 -55 171 -101 375 -101 446 0
24 10 64 22 89 l22 45 7 -125 c3 -69 12 -145 18 -170z m105 -60 c74 -235 86
-295 97 -480 6 -96 15 -187 20 -202 14 -35 50 -48 161 -58 l93 -9 -101 4
c-106 3 -155 18 -169 52 -4 10 -11 92 -16 183 -9 178 -21 242 -88 452 -46 143
-61 223 -61 319 0 110 15 88 22 -33 5 -90 14 -137 42 -228z m12053 298 c-3 -7
-5 -2 -5 12 0 14 2 19 5 13 2 -7 2 -19 0 -25z m-12240 -210 c-3 -7 -5 -2 -5
12 0 14 2 19 5 13 2 -7 2 -19 0 -25z m98 -333 c56 -177 75 -259 73 -310 0 -24
-2 -30 -4 -15 -15 98 -32 164 -74 295 -53 162 -90 302 -89 332 0 10 12 -22 25
-72 14 -49 45 -153 69 -230z m12472 198 c-3 -10 -5 -4 -5 12 0 17 2 24 5 18 2
-7 2 -21 0 -30z m-12331 -694 c9 -19 32 -38 58 -49 42 -19 208 -40 314 -40 49
0 52 -1 52 -25 0 -14 -6 -28 -12 -30 -20 -7 -808 -11 -795 -4 7 3 60 16 119
29 172 37 214 73 226 193 l6 62 8 -53 c4 -29 15 -67 24 -83z m511 89 c-3 -8
-6 -5 -6 6 -1 11 2 17 5 13 3 -3 4 -12 1 -19z m5626 -87 c69 -34 82 -63 81
-191 0 -58 -6 -158 -13 -223 -8 -65 -12 -119 -10 -121 2 -2 765 -7 1694 -11
930 -4 1706 -8 1725 -10 19 -2 217 -5 440 -6 291 -2 146 -5 -515 -11 -506 -5
-1468 -6 -2137 -2 -1177 5 -1218 5 -1219 -13 -1 -38 -24 -86 -44 -91 -101 -23
-2095 -42 -4170 -40 -1276 1 -1352 2 -745 9 371 4 1474 12 2450 18 976 6 1920
14 2098 17 355 7 352 7 352 68 l0 33 -1232 6 c-677 4 -1704 8 -2282 8 -578 1
-1231 5 -1451 8 -220 4 807 8 2281 9 2132 2 2684 5 2691 15 15 19 33 125 34
197 0 97 -17 217 -35 244 -25 39 -91 47 -411 46 -159 0 -549 0 -865 0 -316 0
-586 -2 -600 -5 -59 -12 -2109 -17 -2610 -6 -289 6 -659 14 -822 18 -164 3
-298 9 -298 12 0 3 393 7 873 9 807 2 1885 13 3437 32 344 4 767 7 940 6 309
-1 316 -2 363 -25z m-6309 -21 c-5 -5 -63 -21 -129 -35 -66 -14 -153 -34 -194
-44 -40 -11 -70 -16 -65 -12 16 15 138 51 255 75 132 28 147 30 133 16z m523
4 c-3 -3 -12 -4 -19 -1 -8 3 -5 6 6 6 11 1 17 -2 13 -5z m5755 -84 c19 -23 20
-34 14 -155 -4 -71 -9 -161 -13 -198 l-6 -68 -3136 5 c-2944 6 -3512 9 -3546
22 -27 11 -38 62 -31 140 4 41 9 81 13 89 4 13 74 15 492 16 267 0 508 4 535
8 67 11 98 47 94 105 l-3 41 110 0 c61 0 468 -4 905 -9 750 -8 1538 -3 3400
24 289 4 666 7 838 6 l314 -1 20 -25z m-5615 -57 c-2 -16 -4 -3 -4 27 0 30 2
43 4 28 2 -16 2 -40 0 -55z m-2640 11 c-3 -3 -12 -4 -19 -1 -8 3 -5 6 6 6 11
1 17 -2 13 -5z m50 -10 c-3 -3 -12 -4 -19 -1 -8 3 -5 6 6 6 11 1 17 -2 13 -5z
m46 -11 c-7 -2 -19 -2 -25 0 -7 3 -2 5 12 5 14 0 19 -2 13 -5z m247 -35 c126
-17 205 -22 425 -22 200 -1 249 -3 190 -9 -145 -15 -473 -1 -665 28 -96 14
-177 29 -180 32 -3 3 13 3 35 -1 22 -3 110 -16 195 -28z m2225 21 c-4 -5 -53
-9 -110 -9 -57 0 -106 4 -110 9 -3 6 42 10 110 10 68 0 113 -4 110 -10z
m-1378 -25 c-3 -3 -12 -4 -19 -1 -8 3 -5 6 6 6 11 1 17 -2 13 -5z m-74 -11
c-13 -2 -35 -2 -50 0 -16 2 -5 4 22 4 28 0 40 -2 28 -4z m14807 -19 c-8 -1
-231 -12 -495 -24 -321 -14 -495 -26 -525 -35 -53 -16 -61 -13 -25 11 22 14
62 19 208 26 383 18 878 31 837 22z m135 -14 c13 -6 2 -7 -30 -3 -27 3 -52 7
-54 9 -9 8 65 2 84 -6z m-14540 -94 c-7 -71 6 -136 32 -157 11 -10 57 -16 142
-20 l126 -5 -133 -2 c-129 -2 -134 -1 -157 23 -22 21 -25 33 -25 93 0 70 8
132 17 132 3 0 2 -29 -2 -64z m-462 -72 c-102 -45 -301 -75 -478 -72 -106 1
-105 1 50 9 156 7 318 33 400 63 51 19 70 19 28 0z m-810 -41 c-7 -2 -19 -2
-25 0 -7 3 -2 5 12 5 14 0 19 -2 13 -5z m85 -10 c-10 -2 -28 -2 -40 0 -13 2
-5 4 17 4 22 1 32 -1 23 -4z m110 -10 c-16 -2 -40 -2 -55 0 -16 2 -3 4 27 4
30 0 43 -2 28 -4z m14662 -73 c0 -5 -4 -10 -10 -10 -5 0 -10 5 -10 10 0 6 5
10 10 10 6 0 10 -4 10 -10z m-160 -15 c20 -24 6 -28 -15 -5 -10 11 -13 20 -8
20 6 0 16 -7 23 -15z m-18815 -15 c343 -10 453 -21 473 -47 6 -9 12 -32 12
-50 0 -32 -1 -33 -42 -33 -57 0 -108 -27 -133 -70 -19 -34 -20 -49 -18 -495 0
-253 8 -669 17 -925 25 -705 31 -1249 14 -1280 -26 -48 -75 -53 -498 -54 -231
0 -397 4 -415 10 -20 7 -31 19 -37 40 -19 73 -32 2843 -13 2886 5 13 22 18 68
21 127 7 271 6 572 -3z m18081 -67 c-12 -57 -36 -266 -36 -309 0 -64 22 -101
68 -113 20 -6 127 -15 237 -21 277 -15 387 -3 420 43 14 20 15 -12 10 -338 -4
-198 -9 -366 -11 -374 -4 -12 -57 -13 -337 -7 -1070 21 -2002 32 -4787 56
-646 6 -1564 15 -2040 20 -476 5 -1468 14 -2205 20 -737 5 -1632 12 -1990 15
-357 3 -1194 10 -1860 15 -665 6 -1628 15 -2140 20 -511 6 -1204 10 -1540 10
-663 1 -1081 12 -1114 29 -32 17 -36 50 -36 261 0 205 15 329 42 351 19 16
1989 24 6545 27 1791 1 3263 4 3270 6 16 5 6998 19 6998 14 0 -2 -25 -49 -55
-103 -67 -121 -91 -184 -105 -270 -25 -155 39 -293 176 -381 77 -49 151 -67
253 -62 112 6 185 35 254 98 75 68 110 149 111 250 0 174 -85 285 -265 345
-90 30 -137 59 -158 97 -14 24 -13 41 7 168 12 78 24 145 27 151 4 5 65 9 136
9 l131 0 -6 -27z m619 -107 c9 -169 2 -214 -33 -228 -27 -10 -352 -5 -459 8
l-53 7 0 36 c0 20 9 95 20 166 11 72 20 133 20 138 0 4 112 7 249 7 l249 0 7
-134z m-1096 -101 c7 -7 -404 -10 -1232 -10 -683 0 -3235 -3 -5672 -6 -2436
-4 -4374 -4 -4305 0 128 6 452 9 2775 21 2083 10 8422 7 8434 -5z m704 -144
c182 -16 346 -14 380 3 15 8 27 10 27 5 0 -26 -61 -31 -293 -26 -236 6 -284
13 -294 44 -3 9 3 9 24 -1 15 -8 85 -19 156 -25z m-485 -16 c20 -14 72 -37
115 -51 96 -32 97 -41 2 -13 -74 22 -194 89 -159 89 3 0 22 -11 42 -25z m-134
-611 c114 -52 246 -39 339 33 22 17 20 14 -7 -11 -82 -75 -217 -91 -328 -38
-35 16 -79 44 -98 62 l-35 31 35 -25 c20 -14 62 -37 94 -52z m-8724 -64 c3298
-23 5200 -40 6235 -56 215 -4 602 -10 860 -14 424 -6 378 -7 -480 -8 -886 -2
-1410 1 -4675 28 -1886 16 -5661 59 -5695 65 -26 5 1991 -3 3755 -15z m10176
-2111 l49 -6 -44 -2 c-43 -1 -81 19 -81 42 0 6 6 2 14 -8 8 -12 32 -21 62 -26z"/>
<path d="M16570 11125 c0 -5 5 -17 10 -25 5 -8 10 -10 10 -5 0 6 -5 17 -10 25
-5 8 -10 11 -10 5z"/>
<path d="M16600 11055 c0 -5 5 -17 10 -25 5 -8 10 -10 10 -5 0 6 -5 17 -10 25
-5 8 -10 11 -10 5z"/>
<path d="M16681 10830 c0 -8 4 -24 9 -35 5 -13 9 -14 9 -5 0 8 -4 24 -9 35 -5
13 -9 14 -9 5z"/>
<path d="M16701 10754 c0 -11 3 -14 6 -6 3 7 2 16 -1 19 -3 4 -6 -2 -5 -13z"/>
<path d="M16721 10684 c0 -11 3 -14 6 -6 3 7 2 16 -1 19 -3 4 -6 -2 -5 -13z"/>
<path d="M16731 10644 c0 -11 3 -14 6 -6 3 7 2 16 -1 19 -3 4 -6 -2 -5 -13z"/>
<path d="M16741 10604 c0 -11 3 -14 6 -6 3 7 2 16 -1 19 -3 4 -6 -2 -5 -13z"/>
<path d="M16751 10564 c0 -11 3 -14 6 -6 3 7 2 16 -1 19 -3 4 -6 -2 -5 -13z"/>
<path d="M16761 10524 c0 -11 3 -14 6 -6 3 7 2 16 -1 19 -3 4 -6 -2 -5 -13z"/>
<path d="M14793 7895 c0 -27 2 -38 4 -22 2 15 2 37 0 50 -2 12 -4 0 -4 -28z"/>
<path d="M14784 7670 c0 -52 1 -74 3 -47 2 26 2 68 0 95 -2 26 -3 4 -3 -48z"/>
<path d="M15652 5390 c0 -14 2 -19 5 -12 2 6 2 18 0 25 -3 6 -5 1 -5 -13z"/>
<path d="M15641 5344 c0 -11 3 -14 6 -6 3 7 2 16 -1 19 -3 4 -6 -2 -5 -13z"/>
<path d="M16403 11643 c9 -2 25 -2 35 0 9 3 1 5 -18 5 -19 0 -27 -2 -17 -5z"/>
<path d="M16131 11621 c31 -10 62 -22 69 -26 8 -5 11 -4 7 3 -8 12 -93 42
-116 41 -9 0 9 -8 40 -18z"/>
<path d="M16303 11633 c15 -2 39 -2 55 0 15 2 2 4 -28 4 -30 0 -43 -2 -27 -4z"/>
<path d="M16225 11620 c-3 -6 1 -7 9 -4 18 7 21 14 7 14 -6 0 -13 -4 -16 -10z"/>
</g>
</svg>
